<svg xmlns="http://www.w3.org/2000/svg" xmlns:xlink="http://www.w3.org/1999/xlink" width="2000" zoomAndPan="magnify" viewBox="0 0 1500 1499.999933" height="2000" preserveAspectRatio="xMidYMid meet" version="1.0"><defs><g/><clipPath id="7b4495ebfe"><path d="M 607.078125 460.027344 L 892.828125 460.027344 L 892.828125 864.277344 L 607.078125 864.277344 Z M 607.078125 460.027344 " clip-rule="nonzero"/></clipPath><clipPath id="69450460a7"><rect x="0" width="272" y="0" height="110"/></clipPath><clipPath id="40fdcdc448"><rect x="0" width="415" y="0" height="58"/></clipPath></defs><g clip-path="url(#7b4495ebfe)"><path fill="#edbf6d" d="M 739.558594 864.140625 L 725.609375 863.601562 L 728.144531 798.261719 C 728.941406 777.585938 740.957031 759.703125 758.996094 751.023438 L 758.996094 703.445312 C 758.996094 685.484375 747.480469 669.796875 730.359375 664.429688 L 675.175781 647.085938 L 675.175781 863.878906 L 661.207031 863.878906 L 661.207031 642.695312 L 621.292969 630.140625 L 621.292969 863.898438 L 607.300781 863.898438 L 607.300781 611.101562 L 661.1875 628.066406 L 661.1875 592.542969 C 661.1875 572.285156 672.261719 553.746094 690.125 544.1875 L 846.789062 460.027344 L 846.789062 727.074219 L 892.691406 715.121094 L 892.691406 863.859375 L 878.71875 863.859375 L 878.71875 733.199219 L 846.789062 741.523438 L 846.789062 863.859375 L 832.816406 863.859375 L 832.816406 745.15625 L 772.945312 760.722656 L 772.945312 863.859375 L 758.976562 863.859375 L 758.976562 767.1875 C 748.976562 774.371094 742.589844 785.847656 742.09375 798.78125 L 739.558594 864.121094 Z M 675.15625 632.417969 L 734.527344 651.078125 C 757.5 658.28125 772.945312 679.335938 772.945312 703.425781 L 772.945312 746.292969 L 832.816406 730.726562 L 832.816406 483.375 L 696.730469 556.441406 C 683.417969 563.585938 675.15625 577.394531 675.15625 592.503906 Z M 675.15625 632.417969 " fill-opacity="1" fill-rule="nonzero"/></g><g transform="matrix(1, 0, 0, 1, 616, 877)"><g clip-path="url(#69450460a7)"><g fill="#edbf6d" fill-opacity="1"><g transform="translate(4.273558, 86.076761)"><g><path d="M 47.59375 -13.125 L 19.15625 -13.125 L 13.734375 0 L -0.78125 0 L 26.5 -61.234375 L 40.5 -61.234375 L 67.890625 0 L 53.015625 0 Z M 43.125 -23.890625 L 33.421875 -47.328125 L 23.703125 -23.890625 Z M 43.125 -23.890625 "/></g></g></g><g fill="#edbf6d" fill-opacity="1"><g transform="translate(76.868824, 86.076761)"><g/></g></g><g fill="#edbf6d" fill-opacity="1"><g transform="translate(107.220369, 86.076761)"><g><path d="M 27.375 1.046875 C 22.539062 1.046875 17.863281 0.390625 13.34375 -0.921875 C 8.820312 -2.234375 5.191406 -3.9375 2.453125 -6.03125 L 7.265625 -16.703125 C 9.890625 -14.785156 13.007812 -13.242188 16.625 -12.078125 C 20.238281 -10.910156 23.851562 -10.328125 27.46875 -10.328125 C 31.488281 -10.328125 34.460938 -10.921875 36.390625 -12.109375 C 38.316406 -13.304688 39.28125 -14.898438 39.28125 -16.890625 C 39.28125 -18.347656 38.710938 -19.554688 37.578125 -20.515625 C 36.441406 -21.472656 34.984375 -22.242188 33.203125 -22.828125 C 31.421875 -23.410156 29.015625 -24.054688 25.984375 -24.765625 C 21.316406 -25.867188 17.492188 -26.972656 14.515625 -28.078125 C 11.546875 -29.191406 8.992188 -30.972656 6.859375 -33.421875 C 4.734375 -35.867188 3.671875 -39.132812 3.671875 -43.21875 C 3.671875 -46.769531 4.632812 -49.988281 6.5625 -52.875 C 8.488281 -55.769531 11.390625 -58.0625 15.265625 -59.75 C 19.140625 -61.4375 23.878906 -62.28125 29.484375 -62.28125 C 33.390625 -62.28125 37.207031 -61.8125 40.9375 -60.875 C 44.675781 -59.945312 47.941406 -58.609375 50.734375 -56.859375 L 46.359375 -46.109375 C 40.703125 -49.316406 35.046875 -50.921875 29.390625 -50.921875 C 25.429688 -50.921875 22.503906 -50.273438 20.609375 -48.984375 C 18.710938 -47.703125 17.765625 -46.015625 17.765625 -43.921875 C 17.765625 -41.816406 18.859375 -40.253906 21.046875 -39.234375 C 23.234375 -38.210938 26.570312 -37.207031 31.0625 -36.21875 C 35.726562 -35.113281 39.546875 -34.003906 42.515625 -32.890625 C 45.492188 -31.785156 48.046875 -30.035156 50.171875 -27.640625 C 52.296875 -25.253906 53.359375 -22.019531 53.359375 -17.9375 C 53.359375 -14.4375 52.378906 -11.242188 50.421875 -8.359375 C 48.472656 -5.472656 45.546875 -3.179688 41.640625 -1.484375 C 37.734375 0.203125 32.976562 1.046875 27.375 1.046875 Z M 27.375 1.046875 "/></g></g></g><g fill="#edbf6d" fill-opacity="1"><g transform="translate(168.620612, 86.076761)"><g/></g></g><g fill="#edbf6d" fill-opacity="1"><g transform="translate(198.972157, 86.076761)"><g><path d="M 29.5625 -24.0625 L 21.34375 -15.484375 L 21.34375 0 L 7.265625 0 L 7.265625 -61.234375 L 21.34375 -61.234375 L 21.34375 -32.625 L 48.46875 -61.234375 L 64.21875 -61.234375 L 38.84375 -33.9375 L 65.703125 0 L 49.171875 0 Z M 29.5625 -24.0625 "/></g></g></g></g></g><g transform="matrix(1, 0, 0, 1, 552, 981)"><g clip-path="url(#40fdcdc448)"><g fill="#edbf6d" fill-opacity="1"><g transform="translate(0.669535, 45.699735)"><g><path d="M 17.859375 -33.078125 C 22.140625 -33.078125 25.507812 -32.050781 27.96875 -30 C 30.425781 -27.957031 31.65625 -25.140625 31.65625 -21.546875 C 31.65625 -17.953125 30.425781 -15.128906 27.96875 -13.078125 C 25.507812 -11.035156 22.140625 -10.015625 17.859375 -10.015625 L 9.6875 -10.015625 L 9.6875 0 L 4.96875 0 L 4.96875 -33.078125 Z M 17.71875 -14.125 C 20.707031 -14.125 22.988281 -14.757812 24.5625 -16.03125 C 26.144531 -17.3125 26.9375 -19.148438 26.9375 -21.546875 C 26.9375 -23.941406 26.144531 -25.773438 24.5625 -27.046875 C 22.988281 -28.328125 20.707031 -28.96875 17.71875 -28.96875 L 9.6875 -28.96875 L 9.6875 -14.125 Z M 17.71875 -14.125 "/></g></g></g><g fill="#edbf6d" fill-opacity="1"><g transform="translate(53.075415, 45.699735)"><g><path d="M 27.078125 0 L 19.9375 -10.15625 C 19.050781 -10.09375 18.359375 -10.0625 17.859375 -10.0625 L 9.6875 -10.0625 L 9.6875 0 L 4.96875 0 L 4.96875 -33.078125 L 17.859375 -33.078125 C 22.140625 -33.078125 25.507812 -32.050781 27.96875 -30 C 30.425781 -27.957031 31.65625 -25.140625 31.65625 -21.546875 C 31.65625 -18.992188 31.023438 -16.816406 29.765625 -15.015625 C 28.503906 -13.222656 26.707031 -11.921875 24.375 -11.109375 L 32.21875 0 Z M 17.71875 -14.078125 C 20.707031 -14.078125 22.988281 -14.722656 24.5625 -16.015625 C 26.144531 -17.304688 26.9375 -19.148438 26.9375 -21.546875 C 26.9375 -23.941406 26.144531 -25.773438 24.5625 -27.046875 C 22.988281 -28.328125 20.707031 -28.96875 17.71875 -28.96875 L 9.6875 -28.96875 L 9.6875 -14.078125 Z M 17.71875 -14.078125 "/></g></g></g><g fill="#edbf6d" fill-opacity="1"><g transform="translate(105.717547, 45.699735)"><g><path d="M 19.890625 0.375 C 16.554688 0.375 13.546875 -0.351562 10.859375 -1.8125 C 8.179688 -3.28125 6.078125 -5.304688 4.546875 -7.890625 C 3.023438 -10.472656 2.265625 -13.351562 2.265625 -16.53125 C 2.265625 -19.71875 3.023438 -22.601562 4.546875 -25.1875 C 6.078125 -27.769531 8.179688 -29.789062 10.859375 -31.25 C 13.546875 -32.71875 16.554688 -33.453125 19.890625 -33.453125 C 23.203125 -33.453125 26.195312 -32.71875 28.875 -31.25 C 31.550781 -29.789062 33.644531 -27.773438 35.15625 -25.203125 C 36.664062 -22.640625 37.421875 -19.75 37.421875 -16.53125 C 37.421875 -13.320312 36.664062 -10.429688 35.15625 -7.859375 C 33.644531 -5.296875 31.550781 -3.28125 28.875 -1.8125 C 26.195312 -0.351562 23.203125 0.375 19.890625 0.375 Z M 19.890625 -3.828125 C 22.316406 -3.828125 24.5 -4.378906 26.4375 -5.484375 C 28.375 -6.585938 29.898438 -8.109375 31.015625 -10.046875 C 32.140625 -11.984375 32.703125 -14.144531 32.703125 -16.53125 C 32.703125 -18.925781 32.140625 -21.09375 31.015625 -23.03125 C 29.898438 -24.96875 28.375 -26.488281 26.4375 -27.59375 C 24.5 -28.695312 22.316406 -29.25 19.890625 -29.25 C 17.460938 -29.25 15.265625 -28.695312 13.296875 -27.59375 C 11.328125 -26.488281 9.785156 -24.96875 8.671875 -23.03125 C 7.554688 -21.09375 7 -18.925781 7 -16.53125 C 7 -14.144531 7.554688 -11.984375 8.671875 -10.046875 C 9.785156 -8.109375 11.328125 -6.585938 13.296875 -5.484375 C 15.265625 -4.378906 17.460938 -3.828125 19.890625 -3.828125 Z M 19.890625 -3.828125 "/></g></g></g><g fill="#edbf6d" fill-opacity="1"><g transform="translate(163.698941, 45.699735)"><g><path d="M 17.859375 -33.078125 C 22.140625 -33.078125 25.507812 -32.050781 27.96875 -30 C 30.425781 -27.957031 31.65625 -25.140625 31.65625 -21.546875 C 31.65625 -17.953125 30.425781 -15.128906 27.96875 -13.078125 C 25.507812 -11.035156 22.140625 -10.015625 17.859375 -10.015625 L 9.6875 -10.015625 L 9.6875 0 L 4.96875 0 L 4.96875 -33.078125 Z M 17.71875 -14.125 C 20.707031 -14.125 22.988281 -14.757812 24.5625 -16.03125 C 26.144531 -17.3125 26.9375 -19.148438 26.9375 -21.546875 C 26.9375 -23.941406 26.144531 -25.773438 24.5625 -27.046875 C 22.988281 -28.328125 20.707031 -28.96875 17.71875 -28.96875 L 9.6875 -28.96875 L 9.6875 -14.125 Z M 17.71875 -14.125 "/></g></g></g><g fill="#edbf6d" fill-opacity="1"><g transform="translate(216.104821, 45.699735)"><g><path d="M 28.96875 -4.109375 L 28.96875 0 L 4.96875 0 L 4.96875 -33.078125 L 28.296875 -33.078125 L 28.296875 -28.96875 L 9.6875 -28.96875 L 9.6875 -18.8125 L 26.265625 -18.8125 L 26.265625 -14.796875 L 9.6875 -14.796875 L 9.6875 -4.109375 Z M 28.96875 -4.109375 "/></g></g></g><g fill="#edbf6d" fill-opacity="1"><g transform="translate(266.053745, 45.699735)"><g><path d="M 27.078125 0 L 19.9375 -10.15625 C 19.050781 -10.09375 18.359375 -10.0625 17.859375 -10.0625 L 9.6875 -10.0625 L 9.6875 0 L 4.96875 0 L 4.96875 -33.078125 L 17.859375 -33.078125 C 22.140625 -33.078125 25.507812 -32.050781 27.96875 -30 C 30.425781 -27.957031 31.65625 -25.140625 31.65625 -21.546875 C 31.65625 -18.992188 31.023438 -16.816406 29.765625 -15.015625 C 28.503906 -13.222656 26.707031 -11.921875 24.375 -11.109375 L 32.21875 0 Z M 17.71875 -14.078125 C 20.707031 -14.078125 22.988281 -14.722656 24.5625 -16.015625 C 26.144531 -17.304688 26.9375 -19.148438 26.9375 -21.546875 C 26.9375 -23.941406 26.144531 -25.773438 24.5625 -27.046875 C 22.988281 -28.328125 20.707031 -28.96875 17.71875 -28.96875 L 9.6875 -28.96875 L 9.6875 -14.078125 Z M 17.71875 -14.078125 "/></g></g></g><g fill="#edbf6d" fill-opacity="1"><g transform="translate(318.695878, 45.699735)"><g><path d="M 11.53125 -28.96875 L 0.1875 -28.96875 L 0.1875 -33.078125 L 27.546875 -33.078125 L 27.546875 -28.96875 L 16.203125 -28.96875 L 16.203125 0 L 11.53125 0 Z M 11.53125 -28.96875 "/></g></g></g><g fill="#edbf6d" fill-opacity="1"><g transform="translate(364.72305, 45.699735)"><g><path d="M 17.625 -11.4375 L 17.625 0 L 12.953125 0 L 12.953125 -11.53125 L -0.1875 -33.078125 L 4.859375 -33.078125 L 15.453125 -15.640625 L 26.078125 -33.078125 L 30.765625 -33.078125 Z M 17.625 -11.4375 "/></g></g></g></g></g></svg>